<svg id="Layer_1" enable-background="new 0 0 64 64" height="512" viewBox="0 0 64 64" width="512" xmlns="http://www.w3.org/2000/svg" xmlns:xlink="http://www.w3.org/1999/xlink"><clipPath id="SVGID_00000179608502691019331590000005095806545370988417_"><path id="SVGID_1_" d="m0 0h64v64h-64z"/></clipPath><g><g><path clip-path="url(#SVGID_00000179608502691019331590000005095806545370988417_)" d="m58.813 20.671c0-2.186-1.778-3.964-3.965-3.964h-13.202v-3.076c0-2.186-1.778-3.964-3.964-3.964h-11.734c-2.186 0-3.964 1.778-3.964 3.964v3.076h-12.833c-2.186 0-3.964 1.778-3.964 3.964v6.576c0 1.053.421 2.016 1.109 2.734v20.388c0 2.186 1.778 3.964 3.964 3.964h43.48c2.186 0 3.964-1.778 3.964-3.964v-20.387c.688-.718 1.109-1.682 1.109-2.735zm-34.829-7.04c0-1.083.881-1.964 1.964-1.964h11.733c1.083 0 1.964.881 1.964 1.964v3.076h-15.661zm-16.797 7.04c0-1.083.881-1.964 1.964-1.964h45.698c1.083 0 1.965.881 1.965 1.964v6.576c0 .904-.613 1.688-1.49 1.906l-18.371 4.571v-.319c0-1.103-.897-2-2-2h-5.905c-1.103 0-2 .897-2 2v.319l-18.371-4.57c-.877-.218-1.49-1.002-1.49-1.906zm27.766 18.144h-5.906v-5.41h5.905zm18.787 13.518h-43.48c-1.083 0-1.964-.881-1.964-1.964v-19.25l18.752 4.666v3.03c0 1.103.897 2 2 2h5.905c1.103 0 2-.897 2-2v-3.03l18.752-4.666v19.251c-.001 1.082-.882 1.963-1.965 1.963z"/></g></g></svg>