<svg id="Слой_1" enable-background="new 0 0 512 512" height="512" viewBox="0 0 512 512" width="512" xmlns="http://www.w3.org/2000/svg"><g fill="rgb(0,0,0)"><path d="m417.684 485.053c7.447 0 13.474-6.026 13.474-13.474v-67.368h67.368c7.447 0 13.474-6.026 13.474-13.474s-6.026-13.474-13.474-13.474h-67.368v-67.368c0-7.447-6.026-13.474-13.474-13.474s-13.474 6.026-13.474 13.474v67.368h-67.368c-7.447 0-13.474 6.026-13.474 13.474s6.026 13.474 13.474 13.474h67.368v67.368c.001 7.447 6.027 13.474 13.474 13.474z"/><path d="m67.368 404.211h215.579c7.447 0 13.474-6.026 13.474-13.474s-6.026-13.474-13.474-13.474h-215.579c-22.289 0-40.421-18.132-40.421-40.421v-148.21h458.105v148.211c0 7.447 6.026 13.474 13.474 13.474s13.474-6.027 13.474-13.475v-242.526c0-37.145-30.224-67.368-67.368-67.368h-377.264c-37.144-.001-67.368 30.223-67.368 67.368v242.526c0 37.145 30.224 67.369 67.368 67.369zm0-350.316h377.263c22.289 0 40.421 18.132 40.421 40.421v67.368h-458.105v-67.368c0-22.29 18.132-40.421 40.421-40.421z"/><path d="m121.263 269.474c-7.447 0-13.474 6.026-13.474 13.474s6.026 13.474 13.474 13.474h53.895c7.447 0 13.474-6.026 13.474-13.474s-6.026-13.474-13.474-13.474z"/></g></svg>